<?xml version="1.0" encoding="UTF-8"?>
<svg width="6px" height="13px" viewBox="0 0 6 13" version="1.1" xmlns="http://www.w3.org/2000/svg" xmlns:xlink="http://www.w3.org/1999/xlink">
    <!-- Generator: sketchtool 51.3 (57544) - http://www.bohemiancoding.com/sketch -->
    <title>3CDD7392-CE8D-4FB7-92A9-8EB1B7735AD4</title>
    <desc>Created with sketchtool.</desc>
    <defs></defs>
    <g id="Page-1" stroke="none" stroke-width="1" fill="none" fill-rule="evenodd">
        <g id="DINK-kit-Main-1440" transform="translate(-281.000000, -3943.000000)" fill="#FFFFFF">
            <g id="News" transform="translate(40.000000, 3429.000000)">
                <g id="Social" transform="translate(0.000000, 340.000000)">
                    <g id="Social-icons-Copy" transform="translate(223.000000, 160.000000)">
                        <path d="M23.8153343,16.0018077 C23.8153343,16.0018077 22.3415985,15.8543693 21.9726791,16.4189032 C21.7707443,16.72736 21.8911285,17.6313903 21.8717117,18.2812834 L23.8289261,18.2812834 C23.6638832,19.0398153 23.5454407,19.5539098 23.4231148,20.2096228 L21.8620033,20.2096228 L21.8620033,26.4194966 L19.1514168,26.4194966 C19.1533585,24.506677 19.1514168,22.2718209 19.1514168,20.2348426 L18,20.2348426 L18,18.2812834 L19.1397667,18.2812834 C19.1980171,16.8515186 19.2193756,15.4372737 19.9300308,14.7156014 C20.7280617,13.90663 21.4892006,14.003629 23.8153343,14.003629 L23.8153343,16.0018077 Z" id="facebook-icon"></path>
                    </g>
                </g>
            </g>
        </g>
    </g>
</svg>