<?xml version="1.0" encoding="UTF-8"?>
<svg width="15px" height="13px" viewBox="0 0 15 13" version="1.1" xmlns="http://www.w3.org/2000/svg" xmlns:xlink="http://www.w3.org/1999/xlink">
    <!-- Generator: sketchtool 51.3 (57544) - http://www.bohemiancoding.com/sketch -->
    <title>A01168DF-FBC3-41FD-9F0D-FDDC4BA4622D</title>
    <desc>Created with sketchtool.</desc>
    <defs></defs>
    <g id="Page-1" stroke="none" stroke-width="1" fill="none" fill-rule="evenodd">
        <g id="DINK-kit-Product-1440" transform="translate(-1313.000000, -636.000000)" fill="#1A1919">
            <g id="Product" transform="translate(0.000000, 174.000000)">
                <g id="About" transform="translate(1095.000000, 59.000000)">
                    <g id="Fave" transform="translate(205.000000, 389.000000)">
                        <path d="M17.036,14.001 C13.135,14 13.004,17.907 13,18.073 C13.06,21.152 15.365,23.129 15.388,23.148 C17.19,24.838 19.91,26.619 20.5,26.999 C21.09,26.62 23.808,24.839 25.602,23.156 C25.635,23.129 27.941,21.152 28,18.064 C27.996,17.907 27.865,14 23.964,14.001 L23.949,14 C23.788,14 22.326,14.043 20.643,15.517 L20.5,15.642 L20.357,15.517 C18.674,14.043 17.212,14 17.051,14 L17.036,14.001" id="fave-icon"></path>
                    </g>
                </g>
            </g>
        </g>
    </g>
</svg>