<?xml version="1.0" encoding="UTF-8"?>
<svg width="13px" height="11px" viewBox="0 0 13 11" version="1.1" xmlns="http://www.w3.org/2000/svg" xmlns:xlink="http://www.w3.org/1999/xlink">
    <!-- Generator: sketchtool 51.3 (57544) - http://www.bohemiancoding.com/sketch -->
    <title>0A60F038-FA88-43C1-A1CE-57F2E0C40DE7</title>
    <desc>Created with sketchtool.</desc>
    <defs></defs>
    <g id="Page-1" stroke="none" stroke-width="1" fill="none" fill-rule="evenodd">
        <g id="DINK-kit-Main-1440" transform="translate(-409.000000, -3945.000000)" fill="#FFFFFF">
            <g id="News" transform="translate(40.000000, 3429.000000)">
                <g id="Social" transform="translate(0.000000, 340.000000)">
                    <g id="Social-icons-Copy" transform="translate(223.000000, 160.000000)">
                        <path d="M151.602778,18.5840525 C151.456764,17.497664 150.617764,16.6227334 149.773326,16.5994536 C148.929084,16.5742339 148.362889,17.406485 148.508904,18.4948134 C148.65453,19.5831418 149.457027,20.4852322 150.301464,20.5104519 C151.145318,20.5356717 151.748404,19.6723809 151.602778,18.5840525 L151.602778,18.5840525 Z M150.189235,22.6230894 C148.931414,22.6095095 147.804268,23.3758014 147.804268,24.2953516 C147.804268,25.2343016 148.712975,25.9191143 149.970795,25.9191143 C151.739278,25.9191143 152.355956,25.2808611 152.355956,24.3438511 C152.355956,24.2293923 152.341394,24.1188135 152.315569,24.0101746 C152.177322,23.4805603 151.68763,23.2167231 151.004546,22.751128 C150.756205,22.6715889 150.482817,22.6250294 150.189235,22.6230894 L150.189235,22.6230894 Z M151.688018,16.7604719 C152.377121,17.1426478 152.78099,17.7615012 152.78099,18.5704726 C152.78099,19.2494654 152.36081,19.7848997 151.818887,20.2019952 C151.290168,20.6055109 151.189783,20.7762291 151.189783,21.1215454 C151.189783,21.4144823 151.756365,21.9169369 152.052472,22.1206348 C152.918267,22.7220283 153.174181,23.2807424 153.174181,24.2119325 C153.174181,25.3739801 152.052472,26.6698863 149.977785,26.6698863 C148.15746,26.6698863 146.573242,25.8007755 146.573242,24.6387279 C146.573242,23.4592205 148.022707,22.3204526 149.842645,22.3204526 C150.041084,22.3204526 150.222631,22.3126927 150.41078,22.3126927 C150.161663,22.0760152 149.964776,21.7791984 149.964776,21.4203022 C149.964776,21.2069045 150.034288,20.9935068 150.130984,20.8111487 C150.031958,20.8169687 149.930991,20.8014488 149.827111,20.8014488 C148.332211,20.8014488 147.330692,19.7228203 147.330692,18.4288541 C147.330692,17.1639876 148.713751,16 150.183215,16 L153.460579,16 L152.727206,16.7604719 L151.688018,16.7604719 L151.688018,16.7604719 Z M157.058319,18.6791114 L157.058319,20.5725313 L156.281647,20.5725313 L156.281647,18.6791114 L154.339966,18.6791114 L154.339966,17.9050597 L156.281647,17.9050597 L156.281647,16.0116399 L157.058319,16.0116399 L157.058319,17.9050597 L159,17.9050597 L159,18.6791114 L157.058319,18.6791114 L157.058319,18.6791114 Z" id="google-+-icon"></path>
                    </g>
                </g>
            </g>
        </g>
    </g>
</svg>