<?xml version="1.0" encoding="UTF-8"?>
<svg width="26px" height="25px" viewBox="0 0 26 25" version="1.1" xmlns="http://www.w3.org/2000/svg" xmlns:xlink="http://www.w3.org/1999/xlink">
    <!-- Generator: sketchtool 51.3 (57544) - http://www.bohemiancoding.com/sketch -->
    <title>5CA16D65-67AE-4342-94A8-4AEBA639FD0E</title>
    <desc>Created with sketchtool.</desc>
    <defs></defs>
    <g id="Page-1" stroke="none" stroke-width="1" fill="none" fill-rule="evenodd" opacity="0.5">
        <g id="DINK-kit-Main-1440" transform="translate(-339.000000, -3724.000000)" fill="#FFFFFF">
            <g id="News" transform="translate(40.000000, 3429.000000)">
                <g id="Instagram-pic-01">
                    <path d="M321.261331,305.224145 L319.008901,305.224145 C319.182635,305.857431 319.275802,306.521238 319.275802,307.207934 C319.275802,311.335741 315.925221,314.685293 311.791884,314.685293 C307.658928,314.685293 304.307966,311.335741 304.307966,307.207934 C304.307966,306.521238 304.401133,305.857431 304.574867,305.224145 L302.322437,305.224145 L302.322437,315.448289 C302.322437,316.12354 302.869603,316.669083 303.544301,316.669083 L320.039467,316.669083 C320.714547,316.669083 321.261331,316.12354 321.261331,315.448289 L321.261331,305.224145 L321.261331,305.224145 Z M321.261331,298.967578 C321.261331,298.292327 320.714547,297.746785 320.039467,297.746785 L317.595739,297.746785 C316.92104,297.746785 316.373874,298.292327 316.373874,298.967578 L316.373874,301.409165 C316.373874,302.084417 316.92104,302.629959 317.595739,302.629959 L320.039467,302.629959 C320.714547,302.629959 321.261331,302.084417 321.261331,301.409165 L321.261331,298.967578 L321.261331,298.967578 Z M311.791884,302.477359 C309.887303,302.477359 308.249241,303.602778 307.498177,305.224145 L307.493977,305.224145 C307.485958,305.239404 307.480612,305.258479 307.472976,305.277554 C307.42792,305.376744 307.388209,305.479748 307.350026,305.582753 C307.33208,305.632347 307.312224,305.681942 307.295806,305.731537 C307.261059,305.838356 307.232421,305.945176 307.204929,306.05581 C307.191947,306.105405 307.176674,306.155 307.165601,306.208409 C307.140781,306.322859 307.123217,306.441123 307.10718,306.559387 C307.100307,306.605167 307.09038,306.654762 307.085416,306.700542 C307.06747,306.868401 307.05716,307.03626 307.05716,307.207934 C307.05716,309.821195 309.177094,311.938508 311.791884,311.938508 C314.407055,311.938508 316.526607,309.821195 316.526607,307.207934 C316.526607,307.03626 316.51668,306.868401 316.498734,306.700542 C316.49377,306.654762 316.483842,306.605167 316.476969,306.559387 C316.460932,306.441123 316.443368,306.322859 316.418549,306.208409 C316.407476,306.155 316.392202,306.105405 316.37922,306.05581 C316.351728,305.945176 316.323091,305.838356 316.288344,305.731537 C316.271543,305.681942 316.25207,305.632347 316.234124,305.582753 C316.19594,305.479748 316.15623,305.376744 316.111174,305.277554 C316.103537,305.258479 316.098191,305.239404 316.090173,305.224145 L316.085973,305.224145 C315.334526,303.602778 313.696846,302.477359 311.791884,302.477359 L311.791884,302.477359 Z M320.955865,319.415868 L302.627903,319.415868 C300.940966,319.415868 299.573242,318.050105 299.573242,316.363884 L299.573242,298.051983 C299.573242,296.365763 300.940966,295 302.627903,295 L320.955865,295 C322.643183,295 324.010525,296.365763 324.010525,298.051983 L324.010525,316.363884 C324.010525,318.050105 322.643183,319.415868 320.955865,319.415868 L320.955865,319.415868 Z" id="instagram-icon"></path>
                </g>
            </g>
        </g>
    </g>
</svg>