<?xml version="1.0" encoding="UTF-8"?>
<svg width="13px" height="13px" viewBox="0 0 13 13" version="1.1" xmlns="http://www.w3.org/2000/svg" xmlns:xlink="http://www.w3.org/1999/xlink">
    <!-- Generator: sketchtool 51.3 (57544) - http://www.bohemiancoding.com/sketch -->
    <title>76BCE40D-A38F-441C-8CF8-2C39C4D4E7CB</title>
    <desc>Created with sketchtool.</desc>
    <defs></defs>
    <g id="Page-1" stroke="none" stroke-width="1" fill="none" fill-rule="evenodd">
        <g id="DINK-kit-Main-1440" transform="translate(-475.000000, -3944.000000)" fill="#FFFFFF">
            <g id="News" transform="translate(40.000000, 3429.000000)">
                <g id="Social" transform="translate(0.000000, 340.000000)">
                    <g id="Social-icons-Copy" transform="translate(223.000000, 160.000000)">
                        <path d="M223.60199,20.1991446 L222.456592,20.1991446 C222.544939,20.5211811 222.592316,20.8587375 222.592316,21.2079338 C222.592316,23.3069915 220.888491,25.0102933 218.786621,25.0102933 C216.684946,25.0102933 214.980927,23.3069915 214.980927,21.2079338 C214.980927,20.8587375 215.028304,20.5211811 215.11665,20.1991446 L213.971252,20.1991446 L213.971252,25.3982892 C213.971252,25.7416655 214.249495,26.0190825 214.59259,26.0190825 L222.980652,26.0190825 C223.323941,26.0190825 223.60199,25.7416655 223.60199,25.3982892 L223.60199,20.1991446 L223.60199,20.1991446 Z M223.60199,17.0175785 C223.60199,16.6742022 223.323941,16.3967851 222.980652,16.3967851 L221.737976,16.3967851 C221.394881,16.3967851 221.116638,16.6742022 221.116638,17.0175785 L221.116638,18.2591653 C221.116638,18.6025416 221.394881,18.8799586 221.737976,18.8799586 L222.980652,18.8799586 C223.323941,18.8799586 223.60199,18.6025416 223.60199,18.2591653 L223.60199,17.0175785 L223.60199,17.0175785 Z M218.786621,18.8023595 C217.818111,18.8023595 216.98513,19.3746534 216.603201,20.1991446 L216.601065,20.1991446 C216.596988,20.2069045 216.594269,20.2166044 216.590386,20.2263043 C216.567474,20.2767438 216.547281,20.3291232 216.527864,20.3815026 C216.518738,20.4067224 216.508641,20.4319421 216.500292,20.4571618 C216.482623,20.5114813 216.46806,20.5658007 216.45408,20.6220601 C216.447478,20.6472798 216.439711,20.6724995 216.434081,20.6996592 C216.42146,20.7578586 216.412528,20.817998 216.404373,20.8781373 C216.400878,20.9014171 216.395829,20.9266368 216.393305,20.9499166 C216.384179,21.0352757 216.378937,21.1206348 216.378937,21.2079338 C216.378937,22.5368197 217.456958,23.6135082 218.786621,23.6135082 C220.116478,23.6135082 221.194305,22.5368197 221.194305,21.2079338 C221.194305,21.1206348 221.189257,21.0352757 221.180131,20.9499166 C221.177607,20.9266368 221.172559,20.9014171 221.169064,20.8781373 C221.160909,20.817998 221.151977,20.7578586 221.139356,20.6996592 C221.133725,20.6724995 221.125958,20.6472798 221.119357,20.6220601 C221.105376,20.5658007 221.090814,20.5114813 221.073145,20.4571618 C221.064601,20.4319421 221.054699,20.4067224 221.045573,20.3815026 C221.026156,20.3291232 221.005962,20.2767438 220.983051,20.2263043 C220.979167,20.2166044 220.976449,20.2069045 220.972371,20.1991446 L220.970235,20.1991446 C220.588113,19.3746534 219.755326,18.8023595 218.786621,18.8023595 L218.786621,18.8023595 Z M223.446655,27.4158677 L214.126587,27.4158677 C213.268752,27.4158677 212.573242,26.7213551 212.573242,25.8638842 L212.573242,16.5519835 C212.573242,15.6945126 213.268752,15 214.126587,15 L223.446655,15 C224.304684,15 225,15.6945126 225,16.5519835 L225,25.8638842 C225,26.7213551 224.304684,27.4158677 223.446655,27.4158677 L223.446655,27.4158677 Z" id="instagram-icon"></path>
                    </g>
                </g>
            </g>
        </g>
    </g>
</svg>