<?xml version="1.0" encoding="UTF-8"?>
<svg width="19px" height="26px" viewBox="0 0 19 26" version="1.1" xmlns="http://www.w3.org/2000/svg" xmlns:xlink="http://www.w3.org/1999/xlink">
    <!-- Generator: sketchtool 51.3 (57544) - http://www.bohemiancoding.com/sketch -->
    <title>62A3CC24-F14A-43C6-B57E-32CABF1AABAE</title>
    <desc>Created with sketchtool.</desc>
    <defs></defs>
    <g id="Page-1" stroke="none" stroke-width="1" fill="none" fill-rule="evenodd">
        <g id="DINK-kit-Main-1440" transform="translate(-377.000000, -1651.000000)" fill="#C1C9CE">
            <g id="Free-delivery-banner" transform="translate(0.000000, 1558.000000)">
                <path d="M395.567532,99.461 C394.792532,96.971 393.041532,94.924 390.761532,93.846 C389.572532,93.285 388.306532,93.001 386.998532,93.001 C382.775532,93.001 378.997532,95.951 378.009532,100.016 C377.435532,102.38 377.827532,104.849 379.144532,107.154 C379.884532,108.449 385.248532,116.521 386.899532,119 C388.334532,116.936 392.528532,110.838 394.806532,106.849 C396.066532,104.646 396.343532,101.953 395.567532,99.461 L395.567532,99.461 Z M386.876532,107.403 C384.148532,107.403 381.928532,105.16 381.928532,102.404 C381.928532,99.647 384.148532,97.404 386.876532,97.404 C389.605532,97.404 391.824532,99.647 391.824532,102.404 C391.824532,105.16 389.605532,107.403 386.876532,107.403 L386.876532,107.403 Z" id="Fill-5"></path>
            </g>
        </g>
    </g>
</svg>