<?xml version="1.0" encoding="UTF-8"?>
<svg width="19px" height="19px" viewBox="0 0 19 19" version="1.1" xmlns="http://www.w3.org/2000/svg" xmlns:xlink="http://www.w3.org/1999/xlink">
    <!-- Generator: sketchtool 51.3 (57544) - http://www.bohemiancoding.com/sketch -->
    <title>6B08B244-E95B-4267-92F1-E85CD1B13EB6</title>
    <desc>Created with sketchtool.</desc>
    <defs></defs>
    <g id="Page-1" stroke="none" stroke-width="1" fill="none" fill-rule="evenodd">
        <g id="DINK-kit-Main-1440" transform="translate(-1381.000000, -76.000000)" fill="#1A1D1E">
            <g id="Header" transform="translate(-55.000000, -82.000000)">
                <g id="Main-menu-section" transform="translate(55.000000, 122.000000)">
                    <path d="M1400.003,53.794 L1394.825,48.615 C1395.891,47.286 1396.531,45.602 1396.531,43.766 C1396.531,39.477 1393.054,36 1388.766,36 C1384.477,36 1381,39.477 1381,43.766 C1381,48.055 1384.477,51.531 1388.766,51.531 C1390.602,51.531 1392.286,50.891 1393.615,49.825 L1398.793,55.003 L1400.003,53.794 L1400.003,53.794 Z M1388.703,50.125 C1385.156,50.125 1382.281,47.25 1382.281,43.703 C1382.281,40.156 1385.156,37.281 1388.703,37.281 C1392.25,37.281 1395.125,40.156 1395.125,43.703 C1395.125,47.25 1392.25,50.125 1388.703,50.125 L1388.703,50.125 Z" id="search-icon"></path>
                </g>
            </g>
        </g>
    </g>
</svg>