<?xml version="1.0" encoding="UTF-8"?>
<svg width="17px" height="13px" viewBox="0 0 17 13" version="1.1" xmlns="http://www.w3.org/2000/svg" xmlns:xlink="http://www.w3.org/1999/xlink">
    <!-- Generator: sketchtool 51.3 (57544) - http://www.bohemiancoding.com/sketch -->
    <title>3BDA6459-2DA5-4155-8BED-8DFDB048DB65</title>
    <desc>Created with sketchtool.</desc>
    <defs></defs>
    <g id="Page-1" stroke="none" stroke-width="1" fill="none" fill-rule="evenodd">
        <g id="DINK-kit-Product-1440" transform="translate(-1366.000000, -636.000000)" fill="#1A1919">
            <g id="Product" transform="translate(0.000000, 174.000000)">
                <g id="About" transform="translate(1095.000000, 59.000000)">
                    <g id="Share" transform="translate(259.000000, 389.000000)">
                        <path d="M23.333,19.198 L23.333,21.793 L29,17.915 L23.333,14 L23.333,16.424 C16.48,16.424 16.25,23.097 16.25,23.097 C18.189,20.193 19.615,19.198 23.333,19.198 L23.333,19.198 Z M24.75,25.448 L13.7,25.448 L13.7,18.15 L16.246,18.15 C16.246,18.15 16.87,17.35 18.136,16.599 L12.85,16.599 C12.381,16.599 12,16.944 12,17.375 L12,26.224 C12,26.651 12.381,27 12.85,27 L25.6,27 C26.069,27 26.45,26.655 26.45,26.224 L26.45,21.798 L24.75,23.073 L24.75,25.448 L24.75,25.448 Z" id="Share-icon"></path>
                    </g>
                </g>
            </g>
        </g>
    </g>
</svg>