<?xml version="1.0" encoding="UTF-8"?>
<svg width="13px" height="11px" viewBox="0 0 13 11" version="1.1" xmlns="http://www.w3.org/2000/svg" xmlns:xlink="http://www.w3.org/1999/xlink">
    <!-- Generator: sketchtool 51.3 (57544) - http://www.bohemiancoding.com/sketch -->
    <title>E6A27FD4-AACA-4336-9036-D1723E2454F9</title>
    <desc>Created with sketchtool.</desc>
    <defs></defs>
    <g id="Page-1" stroke="none" stroke-width="1" fill="none" fill-rule="evenodd">
        <g id="DINK-kit-Main-1440" transform="translate(-343.000000, -3945.000000)" fill="#FFFFFF">
            <g id="News" transform="translate(40.000000, 3429.000000)">
                <g id="Social" transform="translate(0.000000, 340.000000)">
                    <g id="Social-icons-Copy" transform="translate(223.000000, 160.000000)">
                        <path d="M89.0255733,16.0006079 C90.0131123,15.9831481 90.5387253,16.3439842 91.0406498,16.7998794 C91.4668488,16.7630198 92.0206161,16.5263423 92.3468185,16.3614441 C92.4526402,16.3032447 92.5582676,16.2450453 92.6640892,16.1868459 C92.4776878,16.6893006 92.2250751,17.0831164 91.836739,17.3818732 C91.7505283,17.4497725 91.6650944,17.5390115 91.5569427,17.5816911 L91.5569427,17.587511 C92.1101276,17.5816911 92.5664227,17.3314337 93,17.1975751 L93,17.2033951 C92.7722408,17.5642312 92.4640961,17.9308873 92.1353695,18.1947245 C92.0027527,18.2994834 91.8699417,18.4042423 91.7373249,18.5109411 C91.7445091,19.0948749 91.7287815,19.653589 91.6190765,20.1463437 C90.9823994,23.0058732 89.295467,24.9458526 86.6248791,25.7781037 C85.6658829,26.0768605 84.1162273,26.1990792 83.0174301,25.9255421 C82.4725945,25.7916835 81.9803783,25.6384252 81.5184525,25.4366673 C81.2619564,25.3241485 81.0242947,25.2038698 80.797118,25.0661313 C80.7223633,25.0195718 80.6478027,24.9749522 80.5732422,24.9283927 C80.8210007,24.9361527 81.1108936,25.0040519 81.3879715,24.9594324 C81.6386425,24.9186928 81.8844593,24.9303327 82.1155193,24.8798933 C82.6923927,24.7537946 83.204414,24.5850164 83.6455639,24.3269992 C83.8595371,24.2028405 84.183992,24.055402 84.3360256,23.874984 C84.0496277,23.8808039 83.7900249,23.8148446 83.5772167,23.7391854 C82.7523907,23.4481885 82.2724072,22.9127542 81.9601849,22.1096028 C82.2100792,22.1367625 82.9298603,22.2027218 83.098204,22.0611033 C82.7836517,22.0436435 82.4811378,21.8612854 82.2648346,21.7254869 C81.6015564,21.3103313 81.0604099,20.6158187 81.0644875,19.5449501 C81.1514748,19.5856897 81.2386562,19.6283692 81.3256435,19.6691088 C81.4922398,19.7389481 81.6617485,19.7758077 81.8605766,19.8184872 C81.9446514,19.834007 82.1124126,19.8844465 82.2089142,19.8475869 L82.1964874,19.8475869 C82.0681423,19.7001485 81.8590233,19.5992695 81.7299015,19.4401912 C81.304285,18.9105769 80.9054638,18.0977256 81.1576881,17.1296759 C81.2217636,16.8832985 81.3233135,16.6660208 81.4314651,16.4662029 C81.4355427,16.4681429 81.4398144,16.4700829 81.4438919,16.4720229 C81.4934048,16.5748418 81.6038864,16.652441 81.6739811,16.7378 C81.8914494,17.0074572 82.1595955,17.2499546 82.43279,17.4633523 C83.363826,18.1908446 84.2022438,18.6370398 85.5487995,18.9687763 C85.8903412,19.0521954 86.2852791,19.1162147 86.6932262,19.1181547 C86.5786671,18.7844782 86.6153648,18.245164 86.705653,17.9211874 C86.9326355,17.1102761 87.4254341,16.5244023 88.1487103,16.2120657 C88.3215199,16.1364065 88.5133579,16.082087 88.7145161,16.0374675 C88.8182018,16.0258276 88.9218876,16.0141878 89.0255733,16.0006079" id="twitter-icon"></path>
                    </g>
                </g>
            </g>
        </g>
    </g>
</svg>