<?xml version="1.0" encoding="UTF-8"?>
<svg width="14px" height="14px" viewBox="0 0 14 14" version="1.1" xmlns="http://www.w3.org/2000/svg" xmlns:xlink="http://www.w3.org/1999/xlink">
    <!-- Generator: sketchtool 51.3 (57544) - http://www.bohemiancoding.com/sketch -->
    <title>09F5296E-A842-408E-9FF6-35B2AD660BB3</title>
    <desc>Created with sketchtool.</desc>
    <defs></defs>
    <g id="Page-1" stroke="none" stroke-width="1" fill="none" fill-rule="evenodd">
        <g id="DINK-kit-Main-1440" transform="translate(-1135.000000, -13.000000)" fill="#6D6D6A">
            <g id="Header" transform="translate(-55.000000, -82.000000)">
                <g id="Service-menu" transform="translate(55.000000, 82.000000)">
                    <path d="M1146.168,23.879 C1145.758,23.707 1145.334,23.534 1144.924,23.347 C1144.373,23.088 1143.807,22.786 1143.397,22.312 C1143.256,22.138 1143.171,22.023 1143.171,21.793 C1143.171,21.462 1143.256,21.132 1143.326,20.815 C1143.44,20.326 1143.68,19.924 1143.878,19.463 C1144.104,18.888 1144.189,18.283 1144.302,17.694 C1144.344,17.435 1144.415,17.19 1144.415,16.931 C1144.415,15.147 1143.496,13.58 1141.588,13.58 C1139.679,13.58 1138.76,15.147 1138.76,16.931 C1138.76,17.19 1138.845,17.435 1138.888,17.694 C1139.015,18.283 1139.085,18.888 1139.326,19.463 C1139.524,19.924 1139.778,20.326 1139.877,20.815 C1139.962,21.132 1140.033,21.462 1140.033,21.793 C1140.033,22.023 1139.948,22.138 1139.807,22.312 C1139.396,22.786 1138.831,23.088 1138.28,23.347 C1137.87,23.548 1137.446,23.707 1137.035,23.879 C1136.357,24.166 1135,24.656 1135,25.562 L1135,27 L1148.19,27 L1148.19,25.562 C1148.19,24.656 1146.846,24.152 1146.168,23.879 Z" id="user-icon"></path>
                </g>
            </g>
        </g>
    </g>
</svg>